<svg xmlns="http://www.w3.org/2000/svg" fill="none" height="64" width="64"><path d="M54 10H10v44h44V10ZM6 6v52h52V6H6Z" clip-rule="evenodd" fill="#000" fill-rule="evenodd"/><path d="m19 22-7-7 2.828-2.828 7 7L19 22Zm15 15-7-7 2.828-2.828 7 7L34 37Zm15 15-7-7 2.828-2.828 7 7L49 52Zm-12-7-7 7-2.828-2.828 7-7L37 45Zm15-15-7 7-2.828-2.828 7-7L52 30Zm-30 0-7 7-2.828-2.828 7-7L22 30Zm15-15-7 7-2.828-2.828 7-7L37 15ZM19 52l-7-7 2.828-2.828 7 7L19 52Zm30-30-7-7 2.828-2.828 7 7L49 22Z" clip-rule="evenodd" fill="#000" fill-rule="evenodd"/></svg>