<svg xmlns="http://www.w3.org/2000/svg" fill="none" height="64" width="64"><path d="M54 10H10v44h44V10ZM6 6v52h52V6H6Z" clip-rule="evenodd" fill="#000" fill-rule="evenodd"/><path d="M19 21.167V19h2.167v-4H15v6.167h4Zm0 4.333h-4v4.333h4V25.5Zm0 8.667h-4V38.5h4v-4.333Zm0 8.666h-4V49h6.167v-4H19v-2.167ZM42.833 19h2.584v2H49v-6h-6.167v4ZM39.5 19v-4h-5.333v4H39.5Zm-9 0v-4h-5v4h5Z" clip-rule="evenodd" fill="#000" fill-rule="evenodd"/><path d="M42.833 49H49v-6h-3.583v2h-2.584v4Zm-8.666 0H39.5v-4h-5.333v4ZM25.5 49h5v-4h-5v4ZM51 32a5 5 0 1 1-10 0 5 5 0 0 1 10 0Z" fill="#000"/></svg>